HIERARCHY
ROOT Spine
{
    OFFSET 0.0 0.0 -0.0
    CHANNELS 6 Xposition Yposition Zposition Zrotation Xrotation Yrotation
    JOINT ShoulderCenter
    {
        OFFSET 0.0 31.77381706237793 0.0
        CHANNELS 3 Zrotation Xrotation Yrotation
        JOINT LeftShoulder
        {
            OFFSET 18.010040283203125 0.0 0.0
            CHANNELS 3 Zrotation Xrotation Yrotation
            JOINT LeftElbow
            {
                OFFSET 32.60741424560547 0.0 0.0
                CHANNELS 3 Zrotation Xrotation Yrotation
                JOINT LeftHand
                {
                    OFFSET 30.722253799438477 0.0 0.0
                    CHANNELS 3 Zrotation Xrotation Yrotation
                    End Site
                    {
                        OFFSET 12.288901329040527 0.0 0.0
                    }
                }
            }
        }
        JOINT RightShoulder
        {
            OFFSET -18.010040283203125 0.0 0.0
            CHANNELS 3 Zrotation Xrotation Yrotation
            JOINT RightElbow
            {
                OFFSET -32.60741424560547 0.0 0.0
                CHANNELS 3 Zrotation Xrotation Yrotation
                JOINT RightHand
                {
                    OFFSET -30.722253799438477 0.0 0.0
                    CHANNELS 3 Zrotation Xrotation Yrotation
                    End Site
                    {
                        OFFSET -12.288901329040527 0.0 0.0
                    }
                }
            }
        }
        End Site
        {
            OFFSET 0.0 12.709527015686035 0.0
        }
    }
    JOINT LeftHip
    {
        OFFSET 17.23957158400629 -17.23957158400629 0.0
        CHANNELS 3 Zrotation Xrotation Yrotation
        JOINT LeftKnee
        {
            OFFSET 0.0 -46.875877380371094 0.0
            CHANNELS 3 Zrotation Xrotation Yrotation
            JOINT LeftFoot
            {
                OFFSET 0.0 -44.41277313232422 0.0
                CHANNELS 3 Zrotation Xrotation Yrotation
                End Site
                {
                    OFFSET 0.0 0.0 17.76511001586914
                }
            }
        }
    }
    JOINT RightHip
    {
        OFFSET -17.23957158400629 -17.23957158400629 0.0
        CHANNELS 3 Zrotation Xrotation Yrotation
        JOINT RightKnee
        {
            OFFSET 0.0 -46.875877380371094 0.0
            CHANNELS 3 Zrotation Xrotation Yrotation
            JOINT RightFoot
            {
                OFFSET 0.0 -44.41277313232422 0.0
                CHANNELS 3 Zrotation Xrotation Yrotation
                End Site
                {
                    OFFSET 0.0 0.0 17.76511001586914
                }
            }
        }
    }
}
MOTION
Frames: 13
Frame Time: 0.03333333333333333
54.10000228881836 11.90000057220459 -51.20000076293945 -1.5421980295944258 -35.129883661587215 -128.41224354843723 -1.7711972393679305e-06 -1.4992133699340498e-06 -11.155481292337937 96.30216310057729 -12.073999752592767 -175.36466153824796 -2.8746323497981823e-06 -1.5760783902995075e-06 40.77815266123136 4.4139062980501586e-32 3.1805546814635168e-15 -1.5902773407317584e-15 -139.22657125247443 59.730245202537816 -159.22789484933398 -2.315256549631012e-06 -3.6016119179645824e-06 -52.8589876882309 0.0 0.0 0.0 -32.92668716781018 -28.567641854951564 26.96860929892601 5.832680806664477 39.295880093704085 -45.64029701113879 -7.951386703658791e-16 -1.5902773407317584e-15 4.373262687012335e-15 -19.664000950486002 -45.84110139102074 -58.893787274455406 -27.86018335860493 5.2174478016938135 20.39509314415007 -1.6151254241806922e-16 -1.1108683319620484e-33 7.881501468958666e-16
52.499996185302734 12.199999809265137 -51.5 -1.7556498725535428 -34.876146147444906 -128.10241531133428 -3.933237902806175e-07 2.0259698661712134e-07 -10.90245839072074 96.30230210330792 -11.528324117906674 -175.07293558883975 3.7250191389205424e-06 3.650852702563804e-06 40.77400768859449 -6.3611093629270335e-15 0.0 0.0 -140.2457480010195 59.32249296738023 -158.00572143238404 1.2573231432665746e-06 -3.335742328556436e-07 -52.78931356134118 0.0 -3.1805546814635168e-15 0.0 -30.708273121963554 -30.809970231855466 31.37487560947198 10.39855024663312 39.184047019668945 -50.96668568203128 7.951386703658792e-16 -1.5902773407317584e-15 -2.3854160110976376e-15 -20.461192959980146 -44.031269080913496 -59.426755221007355 -27.51624299718718 5.162470251407816 22.54742998100566 2.73328917938271e-16 -8.090185921047746e-33 -3.391763390779454e-15
50.900001525878906 12.600000381469727 -51.70000076293945 -1.7623893544581484 -34.83114363661339 -128.15928101692023 5.836489944340568e-07 7.475082726951855e-07 -10.960075150664029 96.13008042554554 -10.629088420856426 -174.64867750075368 8.474909419338349e-06 7.084555776566866e-06 41.04456789925501 0.0 0.0 7.951386703658792e-16 -139.41015184814876 59.0100979956668 -158.8812704894122 -2.856810310041428e-06 -2.5212556016442157e-06 -52.77160982443949 0.0 0.0 0.0 -28.653236267202537 -33.26723780177513 36.012079200109504 14.715881355557135 36.92049644087844 -55.09265026184397 2.3854160110976384e-15 -1.5902773407317588e-15 -7.951386703658794e-16 -21.192021151213922 -42.967278775215696 -60.34915411278981 -27.313444598976076 5.080223788082092 24.549236230582384 -4.472655020808071e-16 -1.1153303267778112e-33 2.8575295966273787e-16
49.29999923706055 12.800000190734863 -51.79999923706055 -2.194175301598953 -34.72111524966576 -127.7832785299484 -1.3087813519605785e-07 -4.086185097745721e-07 -11.562967391899099 95.7773153750787 -10.317074425177214 -174.84875058089798 -8.724603193346255e-07 -7.097429839160586e-07 41.59830882810088 -6.3611093629270335e-15 -1.7655625192200634e-31 3.1805546814635168e-15 -138.72559605215397 59.5737407349733 -159.5982552943469 -1.9151747117402824e-06 -1.5916501073805157e-06 -52.587764482867456 8.827812596100317e-32 3.1805546814635168e-15 -3.1805546814635168e-15 -27.353003666173304 -34.890833251825576 39.89232407528138 18.2409982199648 33.09296995308893 -57.065618322581685 7.951386703658794e-16 3.1805546814635168e-15 -7.951386703658792e-15 -22.323457003145503 -41.18260592872866 -60.72998294874129 -26.91704615297588 5.16747647288699 27.50773982203743 5.466578358765419e-16 -3.975693351829396e-16 -1.528157132109424e-15
47.70000076293945 13.0 -51.79999923706055 -2.6223964778621935 -34.6101891418027 -128.66786483876524 3.0495105788672275e-07 2.6458732993424763e-06 -11.037280995609438 95.62790850031149 -10.504907879859333 -174.99278810218303 -6.194002541176879e-06 -7.360160929243777e-07 42.01447394576652 0.0 0.0 -7.951386703658792e-16 -138.23286202396065 59.46766103814819 -160.2624098015581 -1.69052690263706e-06 3.367340364635241e-06 -52.54289060352462 0.0 -3.180554681463516e-15 0.0 -25.483807812691197 -36.49095428449191 43.58861148705859 19.464812223428563 28.547262375133844 -55.59059059017973 0.0 0.0 -1.789062008323228e-15 -22.783388493876238 -40.07304061227811 -60.560073824875374 -26.651175855998943 5.335614109303554 30.92927857218949 -2.981770013872047e-16 -4.849262290338309e-34 1.8636062586700292e-16
46.0 13.199999809265137 -51.89999771118164 -3.27671701625987 -34.297485746837964 -128.86775852580533 -1.2466157459128397e-06 -6.843105553888146e-07 -11.653381701004042 95.35367504303275 -10.6799553971479 -175.55826975333252 3.519277032537034e-06 -1.1972605613254402e-07 42.213559896891034 6.3611093629270335e-15 0.0 0.0 -137.43992995248828 58.67513738968167 -161.3880759453324 -4.691099893134926e-06 4.322486137577925e-07 -52.648339527292094 0.0 0.0 0.0 -23.92165432767798 -37.246370804041085 46.982171090932454 19.844935212367183 23.85363302011089 -51.31102873233245 8.965747167914385e-33 1.5902773407317584e-15 -6.460501696722769e-16 -23.90612027554823 -38.226591162838425 -61.79058662871734 -25.929515802393233 5.228510189123269 32.61097163875498 -5.963540027744093e-16 2.5862732215137646e-33 -4.969616689786744e-16
44.400001525878906 13.600000381469727 -51.79999923706055 -3.4946378300012415 -34.29148293769514 -129.71410248114657 3.7797526894482453e-07 1.1875400052347497e-06 -11.420490074923661 95.16410517219893 -10.82517216737344 -175.6534226312516 8.205853554055507e-07 -8.852156447820575e-07 42.17140652247755 -6.361109362927033e-15 -4.4139062980501586e-32 7.951386703658791e-16 -135.83759620408196 58.841791320800404 -163.21391257172274 1.9599017285820497e-06 2.2311181174053528e-06 -52.779343431333054 0.0 3.1805546814635168e-15 0.0 -22.09443224121658 -38.25409809194479 50.03513075909463 18.60240552446963 19.08298391998962 -44.081223631767436 0.0 0.0 -6.920191240528042e-15 -24.752294772740342 -37.11644124842266 -62.167010884069065 -24.914622540080376 5.204938690003538 34.724371385976276 1.9878466759146977e-16 -5.732905641022179e-33 -3.3047950987081847e-15
42.69999694824219 13.899999618530273 -51.79999923706055 -3.915285078560725 -33.878719183194626 -130.34303377173325 -2.740836459381617e-06 -2.4671417991993706e-06 -10.942828269042892 95.21279835156496 -11.906101454649438 -175.93766732170494 1.3452606111345093e-06 2.8348563245021844e-06 41.75701163237302 0.0 0.0 -1.5902773407317584e-15 -136.17654544097405 58.32734570034605 -163.06677028668503 1.2105139183075951e-06 -2.063238417354942e-06 -52.88068025974048 0.0 0.0 3.1805546814635168e-15 -20.30205538521281 -38.37132805137127 52.81159686786068 16.465239077582563 14.266986731105716 -33.857701645112364 -7.951386703658791e-16 -3.620782510119271e-33 5.218097524276081e-16 -25.338889785795963 -35.34030277581355 -62.27471299870258 -23.598128520728793 5.031812578626774 35.28104012493865 9.93923337957349e-17 -1.0129570117595579e-33 -1.167859922099885e-15
41.10000228881836 14.200000762939453 -51.70000076293945 -4.548038463142104 -33.7565279982446 -131.39847532146288 6.750014868891863e-07 -1.2407107462722784e-06 -9.706049510531367 94.58290929291913 -13.072594492027983 -175.9428757617135 7.290176343972854e-06 7.042056531217347e-08 41.14308810171812 0.0 0.0 3.1805546814635164e-15 -136.83814388619186 59.32611537105714 -162.6763951127943 -2.3133258437427054e-06 2.7152515171648918e-06 -52.85351717843939 -6.3611093629270335e-15 -3.1805546814635168e-15 -1.7655625192200634e-31 -19.07747540585471 -37.94328091028645 54.04322654442377 13.480972277706297 9.357172424980192 -21.978591433596954 1.987846675914698e-16 1.4138293610941915e-32 8.150171371250262e-15 -26.275935063874737 -33.54545141632674 -61.768836900744894 -21.73135059273516 5.079430505596859 36.78247397691073 -2.981770013872047e-16 -3.975693351829396e-16 -1.5405811738338909e-15
39.29999923706055 14.59999942779541 -51.5 -4.979111036326096 -33.4398684879933 -131.9377535045322 -1.6090544380592371e-06 -4.7472589625828624e-07 -9.741243125807467 94.15706909637447 -13.127742253545941 -176.07530603255208 -2.2994539468495718e-07 2.010665624851856e-06 40.57741826789164 4.4139062980501586e-32 3.1805546814635168e-15 -1.5902773407317584e-15 -136.36285046103242 59.393952614823306 -163.40108852596478 3.219322866324912e-06 2.86226211129789e-06 -52.672448719788115 -6.361109362927033e-15 1.7655625192200634e-31 -3.1805546814635164e-15 -18.254576225385687 -37.04833706310966 54.76697447228122 10.185921557008383 4.438997785583569 -9.770959105637187 1.5902773407317584e-15 1.3103784322336408e-31 9.442271710594815e-15 -27.305553877772102 -31.71412784644493 -62.48762853279165 -20.099746559738357 4.823417063010099 36.668523561366975 -2.9817700138720465e-16 -3.9756933518293955e-16 -1.3914926731402884e-15
37.5 14.800000190734863 -51.30000305175781 -5.349177254066651 -32.675676853200564 -132.733205895103 -1.7170905394809387e-06 -2.3844244521320217e-06 -9.783272859227429 93.94515738697284 -13.077889299732934 -176.78946684960624 -3.7533396272739148e-06 2.6310074985128935e-06 40.38014160517846 -6.3611093629270335e-15 -8.827812596100317e-32 1.5902773407317584e-15 -136.38692546390536 59.075889141953745 -163.49598318063784 -1.309139553031229e-06 2.543509911458675e-06 -52.61592281199994 0.0 0.0 0.0 -17.03125403093848 -35.0330029226611 54.3346594744869 5.6773277760828496 -0.48333686064809206 0.9566145573187376 1.5902773407317582e-15 -1.5902773407317582e-15 4.969616689786744e-15 -27.72388480076283 -29.601782914106945 -61.91090930591045 -18.256379222714898 4.753910462358469 37.104288854798135 9.93923337957349e-16 -2.2629890688245443e-32 -2.609048762138041e-15
35.60000228881836 15.09999942779541 -51.0 -5.3293327971170115 -32.12352417114588 -133.3974771934177 1.153874811702477e-07 1.7030920763600092e-06 -10.047642784034414 93.97238253884164 -12.868987750490987 -176.91086966646554 -4.274966496251071e-06 -4.599866092613377e-06 40.17327496135867 6.361109362927035e-15 -3.1805546814635176e-15 1.1927080055488194e-15 -135.6715138766659 58.6893099874052 -164.16963175421458 4.358296076573471e-06 -1.784664650144796e-06 -52.75337322076349 6.361109362927033e-15 3.1805546814635164e-15 -1.7655625192200634e-31 -15.759795209687711 -33.089059302104346 54.030683666569175 1.2474665913538847 -4.776594874130478 8.525798842013284 -3.1805546814635168e-15 0.0 0.0 -28.37200127544817 -28.041790654154525 -62.73914477759085 -16.55702399528584 4.559282314354367 37.23855136087112 -3.975693351829396e-16 3.975693351829396e-16 2.2860236773019026e-15
33.5 15.199999809265137 -50.599998474121094 -5.731675828611229 -31.550556840550993 -134.6287781055712 -1.0349497943733667e-06 2.116031930884622e-06 -10.691110960302794 93.66160974646483 -11.648485667354821 -177.680472953994 2.3828810807135737e-06 -2.597467998688769e-06 40.56509580985365 6.3611093629270335e-15 -1.1034765745125397e-31 -1.987846675914698e-15 -134.54877125199275 58.10672456499354 -166.12368496741956 -3.9802504027762524e-06 6.920914520064035e-07 -52.464342384392836 -6.361109362927035e-15 -1.7655625192200634e-31 3.1805546814635176e-15 -14.204813750769002 -31.092521631109907 55.43834855437317 -2.6155937041221176 -7.769437270392929 12.939402222388406 1.0483027457869126e-31 -1.5902773407317584e-15 7.553817368475852e-15 -28.76767807742602 -26.39146280676207 -60.80631973335832 -14.79867900012798 4.734004526636873 36.187237120812945 0.0 0.0 -4.721135855297407e-16
